<mxfile host="app.diagrams.net" modified="2024-05-31T23:44:20.837Z" agent="Mozilla/5.0 (Macintosh; Intel Mac OS X 10_15_7) AppleWebKit/605.1.15 (KHTML, like Gecko) Version/17.5 Safari/605.1.15" etag="zFJp9RomWexf8tnvWd-1" version="24.4.11" type="device">
  <diagram name="Страница — 1" id="OQxyb24Iu2K1_3lWsZ0d">
    <mxGraphModel dx="1194" dy="797" grid="1" gridSize="10" guides="1" tooltips="1" connect="1" arrows="1" fold="1" page="1" pageScale="1" pageWidth="827" pageHeight="1169" math="0" shadow="0">
      <root>
        <mxCell id="0" />
        <mxCell id="1" parent="0" />
        <mxCell id="9xGVXGDwaGtkBZ3YLltQ-2" value="" style="html=1;verticalAlign=bottom;startArrow=circle;startFill=1;endArrow=open;startSize=6;endSize=8;curved=0;rounded=0;entryX=0.5;entryY=0;entryDx=0;entryDy=0;" edge="1" parent="1" target="9xGVXGDwaGtkBZ3YLltQ-3">
          <mxGeometry width="80" relative="1" as="geometry">
            <mxPoint x="245" y="40" as="sourcePoint" />
            <mxPoint x="170" y="120" as="targetPoint" />
          </mxGeometry>
        </mxCell>
        <mxCell id="9xGVXGDwaGtkBZ3YLltQ-3" value="created" style="html=1;whiteSpace=wrap;fillColor=#dae8fc;strokeColor=#6c8ebf;rounded=1;glass=0;" vertex="1" parent="1">
          <mxGeometry x="190" y="110" width="110" height="50" as="geometry" />
        </mxCell>
        <mxCell id="9xGVXGDwaGtkBZ3YLltQ-4" value="sent to Restaurant" style="html=1;verticalAlign=bottom;endArrow=block;curved=0;rounded=0;exitX=1;exitY=0.5;exitDx=0;exitDy=0;entryX=0;entryY=0.5;entryDx=0;entryDy=0;" edge="1" parent="1" source="9xGVXGDwaGtkBZ3YLltQ-3" target="9xGVXGDwaGtkBZ3YLltQ-5">
          <mxGeometry width="80" relative="1" as="geometry">
            <mxPoint x="370" y="300" as="sourcePoint" />
            <mxPoint x="430" y="135" as="targetPoint" />
          </mxGeometry>
        </mxCell>
        <mxCell id="9xGVXGDwaGtkBZ3YLltQ-17" style="edgeStyle=orthogonalEdgeStyle;rounded=0;orthogonalLoop=1;jettySize=auto;html=1;exitX=0.5;exitY=0;exitDx=0;exitDy=0;entryX=0.75;entryY=0;entryDx=0;entryDy=0;" edge="1" parent="1" source="9xGVXGDwaGtkBZ3YLltQ-5" target="9xGVXGDwaGtkBZ3YLltQ-3">
          <mxGeometry relative="1" as="geometry" />
        </mxCell>
        <mxCell id="9xGVXGDwaGtkBZ3YLltQ-5" value="accepted by restaurant" style="html=1;whiteSpace=wrap;fillColor=#dae8fc;strokeColor=#6c8ebf;rounded=1;glass=0;" vertex="1" parent="1">
          <mxGeometry x="430" y="110" width="110" height="50" as="geometry" />
        </mxCell>
        <mxCell id="9xGVXGDwaGtkBZ3YLltQ-6" value="chef get a request" style="html=1;verticalAlign=bottom;endArrow=block;curved=0;rounded=0;exitX=0.5;exitY=1;exitDx=0;exitDy=0;" edge="1" parent="1" source="9xGVXGDwaGtkBZ3YLltQ-5">
          <mxGeometry width="80" relative="1" as="geometry">
            <mxPoint x="370" y="300" as="sourcePoint" />
            <mxPoint x="485" y="240" as="targetPoint" />
          </mxGeometry>
        </mxCell>
        <mxCell id="9xGVXGDwaGtkBZ3YLltQ-7" value="in process of creating" style="html=1;whiteSpace=wrap;fillColor=#dae8fc;strokeColor=#6c8ebf;rounded=1;glass=0;" vertex="1" parent="1">
          <mxGeometry x="430" y="240" width="110" height="50" as="geometry" />
        </mxCell>
        <mxCell id="9xGVXGDwaGtkBZ3YLltQ-8" value="wait a courier" style="html=1;verticalAlign=bottom;endArrow=block;curved=0;rounded=0;exitX=0;exitY=0.5;exitDx=0;exitDy=0;entryX=1;entryY=0.5;entryDx=0;entryDy=0;" edge="1" parent="1" source="9xGVXGDwaGtkBZ3YLltQ-7" target="9xGVXGDwaGtkBZ3YLltQ-9">
          <mxGeometry width="80" relative="1" as="geometry">
            <mxPoint x="370" y="300" as="sourcePoint" />
            <mxPoint x="340" y="265" as="targetPoint" />
          </mxGeometry>
        </mxCell>
        <mxCell id="9xGVXGDwaGtkBZ3YLltQ-9" value="is ready to deliver" style="html=1;whiteSpace=wrap;fillColor=#dae8fc;strokeColor=#6c8ebf;rounded=1;glass=0;" vertex="1" parent="1">
          <mxGeometry x="190" y="240" width="110" height="50" as="geometry" />
        </mxCell>
        <mxCell id="9xGVXGDwaGtkBZ3YLltQ-10" value="accepted by courier" style="html=1;verticalAlign=bottom;endArrow=block;curved=0;rounded=0;exitX=0.5;exitY=1;exitDx=0;exitDy=0;entryX=0.5;entryY=0;entryDx=0;entryDy=0;" edge="1" parent="1" source="9xGVXGDwaGtkBZ3YLltQ-9" target="9xGVXGDwaGtkBZ3YLltQ-11">
          <mxGeometry width="80" relative="1" as="geometry">
            <mxPoint x="370" y="300" as="sourcePoint" />
            <mxPoint x="280" y="340" as="targetPoint" />
          </mxGeometry>
        </mxCell>
        <mxCell id="9xGVXGDwaGtkBZ3YLltQ-11" value="on way" style="html=1;whiteSpace=wrap;fillColor=#dae8fc;strokeColor=#6c8ebf;rounded=1;glass=0;" vertex="1" parent="1">
          <mxGeometry x="190" y="360" width="110" height="50" as="geometry" />
        </mxCell>
        <mxCell id="9xGVXGDwaGtkBZ3YLltQ-12" value="deliver" style="html=1;verticalAlign=bottom;endArrow=block;curved=0;rounded=0;exitX=1;exitY=0.5;exitDx=0;exitDy=0;entryX=0;entryY=0.5;entryDx=0;entryDy=0;" edge="1" parent="1" source="9xGVXGDwaGtkBZ3YLltQ-11" target="9xGVXGDwaGtkBZ3YLltQ-13">
          <mxGeometry width="80" relative="1" as="geometry">
            <mxPoint x="370" y="300" as="sourcePoint" />
            <mxPoint x="390" y="380" as="targetPoint" />
          </mxGeometry>
        </mxCell>
        <mxCell id="9xGVXGDwaGtkBZ3YLltQ-13" value="delivered" style="html=1;whiteSpace=wrap;fillColor=#dae8fc;strokeColor=#6c8ebf;rounded=1;glass=0;" vertex="1" parent="1">
          <mxGeometry x="430" y="360" width="110" height="50" as="geometry" />
        </mxCell>
        <mxCell id="9xGVXGDwaGtkBZ3YLltQ-14" value="change status" style="html=1;verticalAlign=bottom;endArrow=block;curved=0;rounded=0;exitX=0.5;exitY=1;exitDx=0;exitDy=0;entryX=0.5;entryY=0;entryDx=0;entryDy=0;" edge="1" parent="1" source="9xGVXGDwaGtkBZ3YLltQ-13" target="9xGVXGDwaGtkBZ3YLltQ-15">
          <mxGeometry width="80" relative="1" as="geometry">
            <mxPoint x="370" y="370" as="sourcePoint" />
            <mxPoint x="485" y="490" as="targetPoint" />
          </mxGeometry>
        </mxCell>
        <mxCell id="9xGVXGDwaGtkBZ3YLltQ-15" value="deleted" style="html=1;whiteSpace=wrap;fillColor=#dae8fc;strokeColor=#6c8ebf;rounded=1;glass=0;" vertex="1" parent="1">
          <mxGeometry x="430" y="480" width="110" height="50" as="geometry" />
        </mxCell>
        <mxCell id="9xGVXGDwaGtkBZ3YLltQ-18" value="change request" style="text;html=1;align=center;verticalAlign=middle;whiteSpace=wrap;rounded=0;" vertex="1" parent="1">
          <mxGeometry x="340" y="60" width="60" height="30" as="geometry" />
        </mxCell>
      </root>
    </mxGraphModel>
  </diagram>
</mxfile>
